<svg xmlns="http://www.w3.org/2000/svg" viewBox="0 0 1200 340" fill="none">
  <g transform="translate(16 20) scale(.54)">
    <path fill="#000" d="M30 420 175 126h75L105 420H30Z"/>
    <path fill="#fff" d="m132 312 58-120 58 120H132Z"/>
    <path fill="#000" d="M220 348c0 52 42 94 94 94h70l-44-72h-24c-22 0-40-18-40-40s18-40 40-40h31l38-66h-69c-53 0-96 43-96 96v28Z"/>
    <path fill="#27A844" d="M168 120h98l67 116-66 22-50-88-69 118-58-50L168 120Z"/>
    <path fill="#27A844" d="M484 126c-24-11-50-16-76-16-94 0-171 77-171 171v50l61 98 57-32-35-56c-6-9-9-20-9-31v-29c0-45 37-82 82-82 12 0 24-2 35-7l56-95Z"/>
    <path fill="#fff" d="M101 314h207l-16 33H84l17-33Z"/>
  </g>
  <text x="318" y="170" fill="#000" font-family="Montserrat, Arial, sans-serif" font-size="116" font-weight="500">AROSOFT</text>
  <text x="325" y="224" fill="#000" font-family="Montserrat, Arial, sans-serif" font-size="33" letter-spacing="14">Innovations Ltd</text>
</svg>
